<svg width="35" height="35" viewBox="0 0 35 35" fill="none" xmlns="http://www.w3.org/2000/svg">
<path fill-rule="evenodd" clip-rule="evenodd" d="M17.5 35C27.165 35 35 27.165 35 17.5C35 7.83502 27.165 0 17.5 0C7.83502 0 0 7.83502 0 17.5C0 27.165 7.83502 35 17.5 35Z" fill="#4147BF"/>
<path d="M19.0932 13.0208H20.7016C20.8495 13.0208 20.9696 12.9076 20.9696 12.7682V11.2526C20.9696 11.1132 20.8495 11 20.7016 11H19.0932C17.4677 11 16.1445 12.2463 16.1445 13.7786V15.5468H14.2681C14.1201 15.5468 14 15.6599 14 15.7994V17.3149C14 17.4544 14.1201 17.5675 14.2681 17.5675H16.1445V22.8721C16.1445 23.0115 16.2646 23.1247 16.4126 23.1247H18.0209C18.1689 23.1247 18.289 23.0115 18.289 22.8721V17.5675H20.1655C20.2807 17.5675 20.3831 17.4978 20.4201 17.3948L20.9562 15.8792C20.9836 15.8024 20.9696 15.7175 20.9192 15.6513C20.8683 15.5857 20.7879 15.5468 20.7016 15.5468H18.289V13.7786C18.289 13.3608 18.6498 13.0208 19.0932 13.0208Z" fill="white"/>
</svg>
