<svg width="24" height="24" viewBox="0 0 24 24" fill="none" xmlns="http://www.w3.org/2000/svg">
<path d="M16.959 9.75C16.7601 9.75 16.5693 9.67098 16.4287 9.53033C16.288 9.38968 16.209 9.19891 16.209 9V2C16.209 1.80109 16.288 1.61032 16.4287 1.46967C16.5693 1.32902 16.7601 1.25 16.959 1.25C17.1579 1.25 17.3487 1.32902 17.4893 1.46967C17.63 1.61032 17.709 1.80109 17.709 2V9C17.709 9.19891 17.63 9.38968 17.4893 9.53033C17.3487 9.67098 17.1579 9.75 16.959 9.75Z" fill="#232323"/>
<path fill-rule="evenodd" clip-rule="evenodd" d="M7 5.75C7.99456 5.75 8.94839 6.14509 9.65165 6.84835C10.3549 7.55161 10.75 8.50544 10.75 9.5C10.75 10.4946 10.3549 11.4484 9.65165 12.1517C8.94839 12.8549 7.99456 13.25 7 13.25C6.00544 13.25 5.05161 12.8549 4.34835 12.1517C3.64509 11.4484 3.25 10.4946 3.25 9.5C3.25 8.50544 3.64509 7.55161 4.34835 6.84835C5.05161 6.14509 6.00544 5.75 7 5.75ZM9.25 9.5C9.25 9.20453 9.1918 8.91194 9.07873 8.63896C8.96566 8.36598 8.79992 8.11794 8.59099 7.90901C8.38206 7.70008 8.13402 7.53434 7.86104 7.42127C7.58806 7.3082 7.29547 7.25 7 7.25C6.70453 7.25 6.41194 7.3082 6.13896 7.42127C5.86598 7.53434 5.61794 7.70008 5.40901 7.90901C5.20008 8.11794 5.03434 8.36598 4.92127 8.63896C4.8082 8.91194 4.75 9.20453 4.75 9.5C4.75 10.0967 4.98705 10.669 5.40901 11.091C5.83097 11.5129 6.40326 11.75 7 11.75C7.59674 11.75 8.16903 11.5129 8.59099 11.091C9.01295 10.669 9.25 10.0967 9.25 9.5ZM17 18.25C17.4925 18.25 17.9801 18.153 18.4351 17.9646C18.89 17.7761 19.3034 17.4999 19.6517 17.1517C19.9999 16.8034 20.2761 16.39 20.4645 15.9351C20.653 15.4801 20.75 14.9925 20.75 14.5C20.75 14.0075 20.653 13.5199 20.4645 13.0649C20.2761 12.61 19.9999 12.1966 19.6517 11.8484C19.3034 11.5001 18.89 11.2239 18.4351 11.0355C17.9801 10.847 17.4925 10.75 17 10.75C16.0054 10.75 15.0516 11.1451 14.3483 11.8484C13.6451 12.5516 13.25 13.5054 13.25 14.5C13.25 15.4946 13.6451 16.4484 14.3483 17.1517C15.0516 17.8549 16.0054 18.25 17 18.25ZM19.25 14.5C19.25 15.0967 19.0129 15.669 18.591 16.091C18.169 16.5129 17.5967 16.75 17 16.75C16.4033 16.75 15.831 16.5129 15.409 16.091C14.9871 15.669 14.75 15.0967 14.75 14.5C14.75 13.9033 14.9871 13.331 15.409 12.909C15.831 12.4871 16.4033 12.25 17 12.25C17.5967 12.25 18.169 12.4871 18.591 12.909C19.0129 13.331 19.25 13.9033 19.25 14.5Z" fill="#232323"/>
<path d="M6.20898 15C6.20898 14.8011 6.288 14.6103 6.42865 14.4697C6.56931 14.329 6.76007 14.25 6.95898 14.25C7.1579 14.25 7.34866 14.329 7.48931 14.4697C7.62997 14.6103 7.70898 14.8011 7.70898 15V22C7.70898 22.1989 7.62997 22.3897 7.48931 22.5303C7.34866 22.671 7.1579 22.75 6.95898 22.75C6.76007 22.75 6.56931 22.671 6.42865 22.5303C6.288 22.3897 6.20898 22.1989 6.20898 22V15ZM16.959 22.75C16.7601 22.75 16.5693 22.671 16.4287 22.5303C16.288 22.3897 16.209 22.1989 16.209 22V20C16.209 19.8011 16.288 19.6103 16.4287 19.4697C16.5693 19.329 16.7601 19.25 16.959 19.25C17.1579 19.25 17.3487 19.329 17.4893 19.4697C17.63 19.6103 17.709 19.8011 17.709 20V22C17.709 22.1989 17.63 22.3897 17.4893 22.5303C17.3487 22.671 17.1579 22.75 16.959 22.75ZM6.20898 2C6.20898 1.80109 6.288 1.61032 6.42865 1.46967C6.56931 1.32902 6.76007 1.25 6.95898 1.25C7.1579 1.25 7.34866 1.32902 7.48931 1.46967C7.62997 1.61032 7.70898 1.80109 7.70898 2V4C7.70898 4.19891 7.62997 4.38968 7.48931 4.53033C7.34866 4.67098 7.1579 4.75 6.95898 4.75C6.76007 4.75 6.56931 4.67098 6.42865 4.53033C6.288 4.38968 6.20898 4.19891 6.20898 4V2Z" fill="#232323"/>
</svg>
