<svg width="135" height="28" viewBox="0 0 135 28" fill="none" xmlns="http://www.w3.org/2000/svg">
<path fill-rule="evenodd" clip-rule="evenodd" d="M29.0474 10.6447C29.0091 16.4992 29.0191 21.433 29.0691 21.6082C29.1844 22.012 37.3709 22.0515 39.7866 21.6599C43.0816 21.1258 45.8798 19.3377 47.4031 16.7927C50.7131 11.2628 48.6718 4.18548 42.9897 1.49204C40.558 0.339099 38.4572 0.00943322 33.5128 0.00433394L29.1165 0L29.0474 10.6447ZM102.083 21.6719H106.421V12.726L115.608 12.8757L115.607 9.25135L114.039 9.08741C113.176 8.99741 111.109 8.92372 109.446 8.92372H106.421V3.82445L116.5 3.82292L116.468 2.35765C116.45 1.55171 116.421 0.691461 116.404 0.446186C116.375 0.0326353 115.85 0 109.228 0H102.083V21.6719ZM71.3357 5.22675L68.6565 5.38101V8.66876H71.4633V13.1388C71.4633 18.172 71.6248 18.8599 73.1824 20.4567C73.693 20.9804 74.4991 21.537 74.9734 21.6933C76.3602 22.1507 78.6578 22.0416 79.9846 21.4552L81.1674 20.9323L80.6613 19.6021C80.3832 18.8706 80.0658 18.1845 79.9558 18.0777C79.8461 17.9709 79.2077 18.0101 78.5373 18.1649C77.4506 18.416 77.2426 18.3903 76.6236 17.9285L75.9288 17.4107L75.7892 8.66876H79.8839V5.35423H75.8012V1.01985H71.484L71.3357 5.22675ZM33.4434 18.1774L36.4748 18.0379C40.0517 17.8732 41.2515 17.4472 42.718 15.8205C44.0561 14.3361 44.4156 13.3463 44.4156 11.1447C44.4156 9.60218 44.2913 9.02724 43.7139 7.89852C42.2758 5.08754 39.7473 3.82445 35.5587 3.82445H33.4434V18.1774ZM56.6057 5.7507C55.1293 6.10816 52.7384 7.18793 52.473 7.61704C52.3939 7.74503 52.6225 8.49003 52.9811 9.27252L53.633 10.6952L55.0405 9.90151C56.1066 9.3003 56.8662 9.07798 58.1727 8.98441C60.5743 8.81282 61.4697 9.39694 61.8897 11.4096L62.0627 12.2383H59.1372C55.4904 12.2383 53.9599 12.6727 52.7011 14.0648C51.7884 15.0742 51.6843 15.4944 51.7953 17.72C51.9094 20.0085 53.4151 21.485 56.1209 21.961C57.952 22.2836 59.4419 22.0079 61.225 21.0174C61.8392 20.6763 62.3845 20.3971 62.437 20.3971C62.4896 20.3971 62.5325 20.6839 62.5325 21.0345C62.5325 21.6576 62.5751 21.6719 64.4462 21.6719H66.36V16.156C66.36 12.7604 66.248 10.2669 66.0688 9.66873C65.4501 7.60556 63.7019 6.20173 61.0528 5.64055C59.3574 5.28157 58.4498 5.304 56.6057 5.7507ZM87.7958 5.76422C86.7083 6.05615 84.0479 7.30675 83.5032 7.782C83.459 7.82075 83.7795 8.48391 84.2156 9.25594L85.0084 10.6598L86.72 9.76715C88.2801 8.95407 88.5851 8.88344 90.1571 8.97141C91.5861 9.05172 91.9923 9.17843 92.5253 9.7108C92.879 10.0642 93.2373 10.7776 93.3215 11.2959L93.4746 12.2383H90.4246C87.0265 12.2383 85.5562 12.5893 84.3768 13.6821C82.3447 15.565 82.5414 19.1299 84.7746 20.8889C85.8795 21.7591 87.8708 22.231 89.5802 22.0276C91.0245 21.8557 93.4077 20.8379 93.4077 20.3927C93.4077 20.2548 93.5225 20.1421 93.6629 20.1421C93.8032 20.1421 93.9181 20.4863 93.9181 20.907V21.6719H97.78L97.6991 15.8715C97.6233 10.4555 97.5805 10.0009 97.0525 9.01474C95.4577 6.03499 91.7007 4.71581 87.7958 5.76422ZM117.649 5.89501C117.649 6.18746 122.437 17.362 123.762 20.1605C124.377 21.4611 124.455 21.8353 124.237 22.4585C123.769 23.8011 121.999 24.6249 120.974 23.9773C120.679 23.7904 120.478 24.0413 120.017 25.1718C119.697 25.9589 119.435 26.684 119.435 26.7832C119.435 26.8823 120.031 27.2197 120.759 27.5327C123.402 28.6686 125.632 27.7217 127.144 24.8217C128.237 22.7249 135 6.35981 135 5.81138C135 5.70022 134.04 5.6092 132.867 5.6092H130.734L128.922 10.3898C127.925 13.0192 126.982 15.5145 126.826 15.9352C126.601 16.5459 126.499 16.6213 126.324 16.3088C126.138 15.9758 124.621 12.0511 122.707 6.94776L122.205 5.6092H119.927C118.415 5.6092 117.649 5.70532 117.649 5.89501ZM59.4705 14.9786C56.5713 15.0961 55.8981 15.4719 55.8981 16.9732C55.8981 18.2712 56.6251 18.8673 58.2074 18.8673C60.2758 18.8673 61.571 17.9627 61.8581 16.3177C62.0158 15.4133 61.8484 14.9169 61.3842 14.9133C61.2439 14.9123 60.3827 14.9416 59.4705 14.9786ZM88.8208 15.0485C87.9247 15.2591 87.0285 16.0908 87.0285 16.7118C87.0285 18.3755 88.6368 19.3382 90.621 18.8625C92.4587 18.4219 93.1525 17.6577 93.1525 16.0749V14.7879L91.4302 14.8139C90.483 14.8284 89.3087 14.934 88.8208 15.0485Z" fill="white"/>
<path fill-rule="evenodd" clip-rule="evenodd" d="M9.52149 3.71482C8.769 3.85964 8.78813 4.05418 9.83891 6.9549C10.596 9.04484 10.6718 9.43875 10.3406 9.56572C10.126 9.64782 8.54777 9.39642 6.83356 9.00684C3.98819 8.36 3.6483 8.22054 2.93358 7.40695C2.28877 6.67317 2.03309 6.54517 1.48423 6.68285C0.0290064 7.04796 -0.4849 8.64301 0.526838 9.65394C1.11041 10.237 1.26096 10.2603 2.18568 9.90866C2.70138 9.71285 3.46101 9.8059 5.4559 10.3092C6.88484 10.6695 8.15277 11.0606 8.27295 11.1779C8.39339 11.2954 8.22115 11.5356 7.8902 11.7118C7.5595 11.8879 6.93205 12.3158 6.49571 12.6625C6.05963 13.0093 5.32016 13.3231 4.85269 13.3598C3.91163 13.4338 3.33368 14.0309 3.33368 14.9294C3.33368 15.6978 4.19028 16.538 4.97364 16.538C5.60237 16.538 6.65086 15.4926 6.65086 14.8662C6.65086 14.4903 8.48806 12.8438 9.49674 12.3155L10.1737 11.9611L10.0413 13.421C9.96828 14.2239 10.0364 15.3396 10.1926 15.9005C10.4618 16.8676 10.4401 16.9467 9.77563 17.4275C9.39033 17.7065 8.83254 18.173 8.53629 18.4642C8.13746 18.8561 7.76313 18.9662 7.09408 18.888C5.26121 18.6743 4.47223 20.6286 5.94863 21.7252C6.84886 22.3937 7.8971 22.0826 8.41228 20.994C8.60978 20.5766 8.86137 20.199 8.97134 20.1551C9.08132 20.1113 9.70113 19.6709 10.3487 19.1768L11.5266 18.2783L12.5386 18.683C16.3464 20.2054 20.1518 17.3602 19.5623 13.4317C19.412 12.4313 19.0854 11.7548 18.0839 10.3701C17.8292 10.0178 17.8591 9.84262 18.2474 9.41403C18.509 9.12516 18.992 8.88905 19.3212 8.88905C20.0535 8.88905 20.9402 8.05124 20.9402 7.35927C20.9402 6.66934 20.0543 5.82949 19.326 5.82949C18.6111 5.82949 17.623 6.81161 17.623 7.52245C17.623 7.80444 17.3424 8.29881 16.9994 8.62083C16.471 9.11674 16.0806 9.21132 14.4421 9.23988L12.5082 9.27329L11.7797 7.3603C11.3791 6.30806 10.9134 5.01692 10.745 4.49093C10.5766 3.9652 10.3615 3.55037 10.2671 3.56949C10.1729 3.58861 9.83738 3.65388 9.52149 3.71482ZM13.0234 16.0607C11.6567 14.6951 11.7611 13.0399 13.2788 12.0124C14.2781 11.3359 14.8274 11.2992 15.9543 11.8334C18.4074 12.9965 17.5363 16.7929 14.8162 16.7929C13.9892 16.7929 13.5952 16.632 13.0234 16.0607Z" fill="white"/>
</svg>
