<svg width="35" height="35" viewBox="0 0 35 35" fill="none" xmlns="http://www.w3.org/2000/svg">
<path fill-rule="evenodd" clip-rule="evenodd" d="M17.5 35C27.165 35 35 27.165 35 17.5C35 7.83502 27.165 0 17.5 0C7.83502 0 0 7.83502 0 17.5C0 27.165 7.83502 35 17.5 35Z" fill="#4147BF"/>
<path d="M13.4837 13.9671C14.303 13.9671 14.9672 13.3029 14.9672 12.4835C14.9672 11.6642 14.303 11 13.4837 11C12.6643 11 12.0001 11.6642 12.0001 12.4835C12.0001 13.3029 12.6643 13.9671 13.4837 13.9671Z" fill="white"/>
<path d="M14.7198 14.958H12.2473C12.1108 14.958 12 15.0688 12 15.2053V22.623C12 22.7595 12.1108 22.8703 12.2473 22.8703H14.7198C14.8563 22.8703 14.9671 22.7595 14.9671 22.623V15.2053C14.9671 15.0688 14.8563 14.958 14.7198 14.958Z" fill="white"/>
<path d="M22.088 14.5466C21.0313 14.1847 19.7094 14.5026 18.9167 15.0728C18.8895 14.9665 18.7926 14.8874 18.6774 14.8874H16.2048C16.0683 14.8874 15.9575 14.9981 15.9575 15.1346V22.5524C15.9575 22.6889 16.0683 22.7996 16.2048 22.7996H18.6774C18.8138 22.7996 18.9246 22.6889 18.9246 22.5524V17.2215C19.3242 16.8773 19.839 16.7675 20.2603 16.9465C20.6688 17.1191 20.9027 17.5404 20.9027 18.1017V22.5524C20.9027 22.6889 21.0135 22.7996 21.1499 22.7996H23.6225C23.759 22.7996 23.8698 22.6889 23.8698 22.5524V17.6037C23.8416 15.5718 22.8857 14.8196 22.088 14.5466Z" fill="white"/>
</svg>
