<svg width="99" height="28" viewBox="0 0 99 28" fill="none" xmlns="http://www.w3.org/2000/svg">
<path d="M6.20248 21.9066V17.8047H11.4178C12.6894 17.8047 13.802 17.557 14.7556 17.0616C15.7093 16.5464 16.4444 15.8033 16.961 14.8323C17.4775 13.8613 17.7358 12.712 17.7358 11.3843C17.7358 10.0566 17.4676 8.9172 16.9312 7.96603C16.4146 7.01486 15.6795 6.28167 14.7258 5.76645C13.792 5.25124 12.6894 4.99363 11.4178 4.99363H6.05347V0.921444H11.4774C13.0668 0.921444 14.5271 1.17905 15.8583 1.69427C17.2093 2.18967 18.3815 2.91295 19.3749 3.86412C20.3882 4.79547 21.163 5.90517 21.6995 7.19321C22.2558 8.46143 22.5339 9.86837 22.5339 11.414C22.5339 12.9398 22.2558 14.3468 21.6995 15.6348C21.163 16.9229 20.3981 18.0326 19.4047 18.9639C18.4113 19.8953 17.2391 20.6185 15.8881 21.1338C14.5569 21.649 13.1066 21.9066 11.537 21.9066H6.20248Z" fill="black"/>
<path d="M31.1439 22.2038C29.8127 22.2038 28.6206 21.8769 27.5676 21.2229C26.5345 20.569 25.71 19.6773 25.0941 18.5478C24.498 17.4183 24.2 16.1302 24.2 14.6837C24.2 13.2371 24.498 11.949 25.0941 10.8195C25.71 9.69002 26.5345 8.7983 27.5676 8.14437C28.6206 7.49045 29.8127 7.16348 31.1439 7.16348C32.1174 7.16348 32.9916 7.35173 33.7664 7.72824C34.5611 8.10474 35.2069 8.62987 35.7036 9.30361C36.2002 9.95754 36.4784 10.7105 36.538 11.5626V17.8047C36.4784 18.6568 36.2002 19.4197 35.7036 20.0934C35.2267 20.7473 34.5909 21.2626 33.7962 21.6391C33.0015 22.0156 32.1174 22.2038 31.1439 22.2038ZM32.0677 18.1019C33.0413 18.1019 33.826 17.7849 34.4221 17.1507C35.0181 16.4968 35.3161 15.6745 35.3161 14.6837C35.3161 14.0099 35.1771 13.4154 34.8989 12.9002C34.6406 12.385 34.2631 11.9887 33.7664 11.7113C33.2896 11.414 32.7333 11.2654 32.0975 11.2654C31.4617 11.2654 30.8955 11.414 30.3988 11.7113C29.922 11.9887 29.5346 12.385 29.2365 12.9002C28.9584 13.4154 28.8193 14.0099 28.8193 14.6837C28.8193 15.3376 28.9584 15.9222 29.2365 16.4374C29.5147 16.9526 29.9021 17.3588 30.3988 17.6561C30.8955 17.9533 31.4518 18.1019 32.0677 18.1019ZM35.1373 21.9066V18.0127L35.8228 14.5053L35.1373 10.9979V7.46072H39.6076V21.9066H35.1373Z" fill="black"/>
<path d="M44.8744 21.9066V1.4862H49.4341V21.9066H44.8744ZM41.5962 11.3248V7.46072H52.7123V11.3248H41.5962Z" fill="black"/>
<path d="M60.4801 22.2038C59.1489 22.2038 57.9569 21.8769 56.9039 21.2229C55.8707 20.569 55.0462 19.6773 54.4303 18.5478C53.8343 17.4183 53.5363 16.1302 53.5363 14.6837C53.5363 13.2371 53.8343 11.949 54.4303 10.8195C55.0462 9.69002 55.8707 8.7983 56.9039 8.14437C57.9569 7.49045 59.1489 7.16348 60.4801 7.16348C61.4536 7.16348 62.3278 7.35173 63.1027 7.72824C63.8974 8.10474 64.5431 8.62987 65.0398 9.30361C65.5365 9.95754 65.8146 10.7105 65.8742 11.5626V17.8047C65.8146 18.6568 65.5365 19.4197 65.0398 20.0934C64.563 20.7473 63.9272 21.2626 63.1325 21.6391C62.3377 22.0156 61.4536 22.2038 60.4801 22.2038ZM61.404 18.1019C62.3775 18.1019 63.1623 17.7849 63.7583 17.1507C64.3543 16.4968 64.6524 15.6745 64.6524 14.6837C64.6524 14.0099 64.5133 13.4154 64.2351 12.9002C63.9768 12.385 63.5994 11.9887 63.1027 11.7113C62.6258 11.414 62.0695 11.2654 61.4338 11.2654C60.798 11.2654 60.2317 11.414 59.735 11.7113C59.2582 11.9887 58.8708 12.385 58.5728 12.9002C58.2946 13.4154 58.1555 14.0099 58.1555 14.6837C58.1555 15.3376 58.2946 15.9222 58.5728 16.4374C58.8509 16.9526 59.2383 17.3588 59.735 17.6561C60.2317 17.9533 60.788 18.1019 61.404 18.1019ZM64.4735 21.9066V18.0127L65.159 14.5053L64.4735 10.9979V7.46072H68.9438V21.9066H64.4735Z" fill="black"/>
<path d="M74.002 21.9066V6.21232C74.002 5.04317 74.2603 3.99292 74.7768 3.06157C75.3133 2.1104 76.0583 1.3673 77.012 0.832272C77.9657 0.277424 79.0981 0 80.4094 0C81.4028 0 82.2671 0.168436 83.0022 0.505308C83.7571 0.822364 84.4128 1.26822 84.9691 1.84289L82.1081 4.69639C81.9094 4.49823 81.681 4.34961 81.4227 4.25053C81.1843 4.13164 80.8962 4.07219 80.5584 4.07219C79.9425 4.07219 79.4557 4.25053 79.0981 4.60722C78.7405 4.96391 78.5617 5.4494 78.5617 6.06369V21.9066H74.002ZM70.8132 11.3248V7.46072H82.734V11.3248H70.8132Z" fill="#4147BF"/>
<path d="M89.2845 21.966L83.3242 7.46072H88.2415L92.0263 18.9639H90.2084L94.0826 7.46072H99L92.8012 21.966H89.2845ZM85.5593 28L89.9104 18.6369L92.8012 21.966L90.2382 28H85.5593Z" fill="#4147BF"/>
<path d="M0 25.323C3.85761 25.323 7.21764 25.323 7.21764 18.3453V8.12766C3.36004 8.12766 0.00272844 8.12766 0 15.1054V25.323Z" fill="url(#paint0_linear_2001_325)"/>
<defs>
<linearGradient id="paint0_linear_2001_325" x1="0" y1="16.7253" x2="7.21764" y2="16.7253" gradientUnits="userSpaceOnUse">
<stop stop-color="#4147BF"/>
<stop offset="1" stop-color="#171A4B"/>
</linearGradient>
</defs>
</svg>
