<svg width="24" height="24" viewBox="0 0 24 24" fill="none" xmlns="http://www.w3.org/2000/svg">
<path d="M13.5 2C13.5 2 15.834 2.212 18.803 5.182C21.773 8.152 21.985 10.485 21.985 10.485M14.207 5.536C14.207 5.536 15.197 5.818 16.682 7.303C18.167 8.788 18.45 9.778 18.45 9.778" stroke="white" stroke-width="1.5" stroke-linecap="round"/>
<path d="M15.645 15.543L16.1 15.063L15.012 14.03L14.557 14.511L15.645 15.543ZM17.599 14.861L19.509 15.962L20.258 14.661L18.347 13.561L17.599 14.861ZM19.878 18.241L18.458 19.736L19.545 20.77L20.965 19.275L19.878 18.241ZM17.603 20.216C16.168 20.357 12.423 20.237 8.359 15.959L7.272 16.991C11.701 21.654 15.926 21.89 17.75 21.709L17.603 20.216ZM8.359 15.959C4.483 11.878 3.833 8.43503 3.752 6.92503L2.254 7.00603C2.354 8.85603 3.138 12.639 7.272 16.991L8.359 15.959ZM9.735 9.32103L10.021 9.01903L8.934 7.98603L8.647 8.28803L9.735 9.32103ZM10.247 5.25903L8.986 3.47703L7.761 4.34303L9.021 6.12603L10.247 5.25903ZM4.717 3.09103L3.149 4.74503L4.237 5.77803L5.807 4.12503L4.717 3.09103ZM9.191 8.80403C9.01103 8.63057 8.82936 8.4589 8.646 8.28903L8.644 8.29103L8.641 8.29403L8.591 8.35203C8.49308 8.48185 8.41552 8.62583 8.361 8.77903C8.263 9.05403 8.211 9.41803 8.277 9.87203C8.407 10.764 8.992 11.963 10.519 13.572L11.607 12.538C10.179 11.035 9.827 10.11 9.761 9.65403C9.729 9.43403 9.761 9.31903 9.774 9.28203L9.782 9.26303L9.754 9.30003L9.736 9.32003C9.736 9.32003 9.734 9.32003 9.191 8.80403ZM10.519 13.572C12.042 15.176 13.192 15.805 14.069 15.948C14.52 16.021 14.885 15.962 15.161 15.853C15.3141 15.7933 15.4563 15.7089 15.582 15.603L15.618 15.569L15.632 15.555L15.639 15.549L15.642 15.546L15.643 15.544C15.643 15.544 15.645 15.543 15.101 15.026C14.557 14.51 14.558 14.509 14.558 14.508L14.56 14.507L14.562 14.504L14.567 14.499L14.577 14.489L14.614 14.457C14.624 14.4517 14.6227 14.452 14.61 14.458C14.59 14.466 14.5 14.498 14.31 14.467C13.908 14.401 13.04 14.047 11.607 12.538L10.519 13.572ZM8.986 3.47703C7.972 2.04303 5.944 1.80003 4.718 3.09203L5.804 4.12503C6.327 3.57503 7.249 3.61803 7.761 4.34303L8.986 3.47703ZM3.752 6.92503C3.73 6.52503 3.905 6.12603 4.237 5.77803L3.149 4.74503C2.613 5.30903 2.205 6.09203 2.254 7.00603L3.752 6.92503ZM18.457 19.737C18.178 20.031 17.887 20.188 17.603 20.216L17.75 21.709C18.497 21.636 19.102 21.237 19.545 20.77L18.457 19.737ZM10.021 9.02003C10.989 8.00103 11.057 6.40703 10.247 5.26003L9.022 6.12603C9.444 6.72303 9.379 7.51803 8.934 7.98603L10.021 9.02003ZM19.509 15.962C20.33 16.435 20.491 17.597 19.878 18.242L20.965 19.275C22.27 17.901 21.89 15.601 20.258 14.661L19.509 15.962ZM16.1 15.064C16.485 14.658 17.086 14.567 17.599 14.862L18.347 13.562C17.248 12.93 15.887 13.112 15.012 14.032L16.1 15.064Z" fill="white"/>
</svg>
