<svg width="35" height="35" viewBox="0 0 35 35" fill="none" xmlns="http://www.w3.org/2000/svg">
<path fill-rule="evenodd" clip-rule="evenodd" d="M17.5 35C27.165 35 35 27.165 35 17.5C35 7.83502 27.165 0 17.5 0C7.83502 0 0 7.83502 0 17.5C0 27.165 7.83502 35 17.5 35Z" fill="#4147BF"/>
<path d="M23.2202 14.2647C23.139 14.1729 23.0081 14.1498 22.9007 14.2064C22.8339 14.2416 22.7083 14.2878 22.5592 14.3334C22.7473 14.0762 22.8985 13.7882 22.9653 13.5293C22.9942 13.4177 22.952 13.3001 22.8601 13.2336C22.7682 13.1677 22.6458 13.1677 22.5539 13.2336C22.4091 13.3375 21.7102 13.6497 21.2683 13.7508C20.2696 12.8511 19.1074 12.7577 17.8992 13.4831C16.9171 14.0729 16.7034 15.2721 16.7451 16.0031C14.4971 15.7805 13.0998 14.5593 12.3132 13.5485C12.2582 13.4776 12.1695 13.4403 12.0861 13.4458C11.9985 13.4524 11.9194 13.5024 11.8745 13.5799C11.5026 14.2257 11.3995 14.9396 11.5774 15.6447C11.6747 16.0295 11.8446 16.3686 12.0418 16.6434C11.9472 16.5956 11.8558 16.5357 11.7698 16.4642C11.6907 16.3972 11.5801 16.3845 11.4866 16.429C11.3936 16.4747 11.3343 16.5714 11.3343 16.6775C11.3343 17.8882 12.0706 18.6962 12.7583 19.1183C12.6472 19.1045 12.5312 19.0792 12.4142 19.0424C12.3138 19.0111 12.2048 19.0424 12.1353 19.1238C12.0658 19.2046 12.0493 19.32 12.0926 19.4184C12.4789 20.2972 13.2109 20.9017 14.1166 21.121C13.3258 21.5986 12.2673 21.8328 11.298 21.7179C11.1724 21.6998 11.0527 21.7817 11.0132 21.9059C10.9736 22.0301 11.0255 22.1664 11.1361 22.2301C12.6066 23.0793 13.936 23.3827 15.0849 23.3827C16.7568 23.3827 18.0472 22.7407 18.8327 22.2038C20.9503 20.7583 22.2701 18.163 22.0863 15.841C22.4256 15.5832 22.9333 15.1072 23.248 14.5955C23.3132 14.4922 23.3014 14.3559 23.2202 14.2647Z" fill="white"/>
</svg>
